<?xml version="1.0" encoding="UTF-8"?>
<svg width="100px" height="135px" viewBox="0 0 100 135" version="1.1" xmlns="http://www.w3.org/2000/svg" xmlns:xlink="http://www.w3.org/1999/xlink">
    <title>22A1C6CD-1ACB-4EA4-A412-E8A22A9F73D5</title>
    <g id="WF---Desktop" stroke="none" stroke-width="1" fill="none" fill-rule="evenodd">
        <g id="01-Landing" transform="translate(-750.000000, -12019.000000)">
            <g id="footer" transform="translate(0.000000, 12019.000000)">
                <g id="bors_logo" transform="translate(750.000000, 0.000000)">
                    <polygon id="Path" fill="#E2003B" points="0 6.64114865 0 134.83277 93.3359756 134.83277 99.6792683 0.177567568"></polygon>
                    <path d="M90.2658537,93.5020946 L73.3993902,93.4990541 L73.4006098,84.6352703 C73.4006098,83.0949324 73.0408537,81.0133784 70.4103659,81.0133784 C67.7792683,81.0121622 67.4207317,83.0937162 67.4207317,84.6334459 C67.895122,99.9723649 90.8640244,94.8891892 90.8603659,115.082027 L90.8603659,119.859932 C90.8579268,127.181554 81.4085366,129.877297 71.0018293,129.876081 C60.5957317,129.874865 51.1457317,127.176081 51.1457317,119.854459 L51.1481707,107.216149 L68.0146341,107.217365 L68.0134146,118.084257 C68.0134146,119.626419 68.3707317,121.704932 71.0030488,121.706149 C73.6347561,121.706149 73.9932927,119.626419 73.9932927,118.085473 C73.6371951,100.434527 50.5506098,102.359189 50.5530488,89.7196622 L50.5530488,82.8589865 C50.5542683,75.5367568 60.0054878,72.8410135 70.4115854,72.8434443 C80.8182927,72.8452703 90.2695122,75.5422297 90.2682927,82.8650676 L90.2658537,93.5020946 Z" id="Path" fill="#FFFFFF"></path>
                    <path d="M22.9231707,81.7759459 L22.9213415,96.8053391 L24.9542683,96.8053391 C27.7060976,96.8065541 28.902439,95.9576351 28.902439,93.3385135 L28.9036585,85.2458108 C28.9036585,82.6242568 27.7085366,81.7771622 24.9560976,81.7771622 L22.9231707,81.7759459 Z M22.9164634,128.791216 L6.05,128.788784 L6.05853659,73.9125 L25.9152439,73.9149324 C36.322561,73.917973 45.7719512,76.6173649 45.7707317,85.0177703 L45.770122,89.8729054 C45.7695122,93.9575676 42.8981707,98.4265541 32.7304878,98.8102703 L32.7304878,98.9647297 C43.3762195,99.3520946 45.7682927,101.972432 45.7670732,108.215878 L45.7658537,119.083378 C45.7652439,124.401892 47.3195122,126.636081 48.2762195,128.794865 L31.1695122,128.792432 C29.9737805,127.251486 28.897561,125.477635 28.8981707,121.700676 L28.9,109.216216 C28.9006098,105.823581 28.9012195,103.126014 22.9207317,103.126014 L22.9164634,128.791216 Z" id="Shape" fill="#FFFFFF"></path>
                    <path d="M73.4426829,57.0539189 L73.4487805,23.4419595 C73.4487805,21.8925 73.0896341,19.8012162 70.4579268,19.8 C67.8268293,19.8 67.4682927,21.8906757 67.4682927,23.4407432 L67.4634146,57.0539189 C67.4634146,58.6021622 67.8207317,60.6940541 70.4512195,60.6940541 C73.0835366,60.6940541 73.4426829,58.6033784 73.4426829,57.0539189 M50.595122,58.8314189 L50.6006098,21.6559459 C50.6018293,14.2984459 60.0518293,11.5893243 70.4585366,11.5911477 C80.8664634,11.5923649 90.3152439,14.304527 90.3140244,21.6626351 L90.3085366,58.8387162 C90.3079268,66.1962162 80.8567073,68.9047297 70.4493902,68.9035139 C60.0432927,68.9022973 50.5939024,66.1901351 50.595122,58.8314189 Z" id="Shape" fill="#FFFFFF"></path>
                    <path d="M22.9195122,42.4088514 L22.9170732,59.9126375 L24.9506098,59.9126375 C27.7018293,59.9138514 28.897561,59.4486486 28.897561,57.279527 L28.9000002,45.0425676 C28.9006098,42.8740541 27.7042683,42.4088514 24.952439,42.4088514 L22.9195122,42.4088514 L22.9195122,42.4088514 Z M6.04939024,67.809527 L6.05853659,12.6650676 L25.9152439,12.6687162 C36.3213415,12.6699324 45.7713415,15.3820946 45.770122,23.8238514 L45.770122,28.007027 C45.7682927,33.2732432 43.8542683,36.9893919 33.0884146,38.3825676 L33.0884146,38.6160811 C41.820122,39.1585135 45.7676829,41.7928378 45.7658537,50.6219595 L45.7652439,55.4235811 C45.7640244,64.8723649 38.945122,67.8143919 25.9067073,67.8125684 L6.04939024,67.809527 Z M28.902439,32.1087162 L28.9036588,24.0531081 C28.9042683,21.42 27.7085366,20.5680405 24.9567073,20.5680405 L22.9231707,20.5668243 L22.9207317,35.5931757 L24.9542683,35.5931757 C27.7060976,35.5931757 28.9018293,34.7418243 28.902439,32.1087162 Z" id="Shape" fill="#FFFFFF"></path>
                </g>
            </g>
        </g>
    </g>
</svg>