<svg xmlns="http://www.w3.org/2000/svg" width="377" height="145" viewBox="0 0 377 145" version="1.1"><path d="M 121.389 23.488 C 113.445 25.216, 108.066 28.022, 104.155 32.476 L 101 36.070 101 78.500 L 101 120.930 104.148 124.516 C 110.330 131.557, 118.021 133.970, 136.500 134.668 C 159.142 135.522, 172.787 131.325, 177.725 121.987 C 179.980 117.724, 180 117.336, 180 78.500 C 180 39.664, 179.980 39.276, 177.725 35.013 C 174.883 29.638, 167.976 25.525, 158.375 23.491 C 149.850 21.685, 129.685 21.684, 121.389 23.488 M 305.609 23.062 C 292.417 24.593, 282.496 29.327, 279.574 35.485 C 278.448 37.857, 278 41.833, 278 49.441 C 278 65.606, 279.649 67.915, 299.460 79.492 C 317.362 89.953, 323.971 98.366, 323.990 110.715 C 324 117.232, 322.772 119.022, 318.316 118.985 C 313.976 118.948, 313.521 117.650, 313 103.789 L 312.500 90.500 295.750 90.226 L 279 89.952 279.002 104.226 C 279.003 120.682, 279.938 123.673, 286.500 128.221 C 288.733 129.769, 294.228 131.931, 298.937 133.115 C 306.214 134.945, 309.375 135.172, 321.937 134.762 C 334.371 134.356, 337.502 133.913, 343.356 131.729 C 350.713 128.984, 355.144 125.481, 357.036 120.913 C 357.795 119.082, 358.083 114.020, 357.842 106.780 C 357.527 97.345, 357.067 94.685, 355.030 90.516 C 351.603 83.501, 345.922 78.416, 333.903 71.604 C 320.384 63.942, 316.616 60.903, 314.044 55.592 C 311.663 50.671, 311.113 42.773, 312.996 40.505 C 314.489 38.706, 320.111 38.511, 321.800 40.200 C 322.585 40.985, 323 45.133, 323 52.200 L 323 63 340 63 L 357 63 357 50.950 C 357 42.327, 356.584 38.096, 355.536 36.069 C 351.978 29.190, 342.483 24.650, 328.237 23.018 C 318.491 21.901, 315.570 21.907, 305.609 23.062 M 12 78.509 L 12 133.182 40.750 132.795 C 67.291 132.437, 69.961 132.239, 75.500 130.216 C 82.575 127.632, 88.319 122.117, 89.912 116.377 C 91.315 111.327, 91.297 94.611, 89.885 89.523 C 87.869 82.262, 79.299 76.026, 71.309 76.006 C 66.788 75.994, 68.325 74.333, 73.928 73.176 C 80.335 71.852, 85.210 68.992, 88.408 64.679 C 90.100 62.397, 90.566 60.077, 90.843 52.533 C 91.398 37.433, 87.295 31.223, 73.781 26.713 C 68.151 24.834, 64.623 24.577, 39.750 24.226 L 12 23.835 12 78.509 M 189.750 24.556 C 189.338 24.984, 189 49.558, 189 79.167 L 189 133 206 133 L 223 133 223 107.500 C 223 93.475, 223.338 82.003, 223.750 82.006 C 226.203 82.024, 231.988 84.280, 233.142 85.669 C 234.146 86.878, 234.630 92.548, 235 107.450 C 235.423 124.495, 235.773 128.012, 237.273 130.298 L 239.046 133 256.023 133 C 265.360 133, 273 132.832, 273 132.627 C 273 132.422, 272.016 130.060, 270.813 127.377 C 268.886 123.078, 268.576 120.308, 268.196 104 C 267.885 90.631, 267.369 84.725, 266.334 82.706 C 264.465 79.057, 259.682 76.218, 254.033 75.404 C 248.123 74.553, 245.340 73.072, 249.571 73.030 C 254.159 72.985, 263.152 68.022, 265.749 64.102 C 267.692 61.169, 268 59.389, 268 51.087 C 268 39.507, 266.517 35.987, 259.676 31.333 C 251.961 26.083, 243.962 24.802, 215.500 24.257 C 201.750 23.994, 190.162 24.129, 189.750 24.556 M 136 40 C 134.073 41.927, 134 43.333, 134 78.500 C 134 113.667, 134.073 115.073, 136 117 C 138.654 119.654, 142.500 119.552, 144.443 116.777 C 145.782 114.866, 146 109.514, 146 78.500 C 146 47.486, 145.782 42.134, 144.443 40.223 C 142.500 37.448, 138.654 37.346, 136 40 M 46 54.500 L 46 69 49.929 69 C 56.331 69, 57 67.593, 57 54.129 C 57 46.340, 56.597 41.997, 55.800 41.200 C 55.140 40.540, 52.665 40, 50.300 40 L 46 40 46 54.500 M 223 55.130 L 223 70.260 227.587 69.743 C 230.110 69.459, 232.697 68.703, 233.337 68.063 C 234.092 67.308, 234.500 62.681, 234.500 54.869 C 234.500 41.210, 233.874 40, 226.809 40 L 223 40 223 55.130 M 46 100 L 46 117 50.300 117 C 52.665 117, 55.140 116.460, 55.800 115.800 C 57.475 114.125, 57.475 85.875, 55.800 84.200 C 55.140 83.540, 52.665 83, 50.300 83 L 46 83 46 100" stroke="none" fill="#fbf9fa" fill-rule="evenodd"/><path d="M 189.500 6.063 C 91.600 9.260, 8.912 11.903, 5.750 11.938 L 0 12 0 78.503 L 0 145.005 182.250 144.753 L 364.500 144.500 370.130 78.500 C 373.227 42.200, 376.022 9.688, 376.342 6.250 L 376.925 -0 372.212 0.125 C 369.621 0.194, 287.400 2.866, 189.500 6.063 M 121.389 23.488 C 113.445 25.216, 108.066 28.022, 104.155 32.476 L 101 36.070 101 78.500 L 101 120.930 104.148 124.516 C 110.330 131.557, 118.021 133.970, 136.500 134.668 C 159.142 135.522, 172.787 131.325, 177.725 121.987 C 179.980 117.724, 180 117.336, 180 78.500 C 180 39.664, 179.980 39.276, 177.725 35.013 C 174.883 29.638, 167.976 25.525, 158.375 23.491 C 149.850 21.685, 129.685 21.684, 121.389 23.488 M 305.609 23.062 C 292.417 24.593, 282.496 29.327, 279.574 35.485 C 278.448 37.857, 278 41.833, 278 49.441 C 278 65.606, 279.649 67.915, 299.460 79.492 C 317.362 89.953, 323.971 98.366, 323.990 110.715 C 324 117.232, 322.772 119.022, 318.316 118.985 C 313.976 118.948, 313.521 117.650, 313 103.789 L 312.500 90.500 295.750 90.226 L 279 89.952 279.002 104.226 C 279.003 120.682, 279.938 123.673, 286.500 128.221 C 288.733 129.769, 294.228 131.931, 298.937 133.115 C 306.214 134.945, 309.375 135.172, 321.937 134.762 C 334.371 134.356, 337.502 133.913, 343.356 131.729 C 350.713 128.984, 355.144 125.481, 357.036 120.913 C 357.795 119.082, 358.083 114.020, 357.842 106.780 C 357.527 97.345, 357.067 94.685, 355.030 90.516 C 351.603 83.501, 345.922 78.416, 333.903 71.604 C 320.384 63.942, 316.616 60.903, 314.044 55.592 C 311.663 50.671, 311.113 42.773, 312.996 40.505 C 314.489 38.706, 320.111 38.511, 321.800 40.200 C 322.585 40.985, 323 45.133, 323 52.200 L 323 63 340 63 L 357 63 357 50.950 C 357 42.327, 356.584 38.096, 355.536 36.069 C 351.978 29.190, 342.483 24.650, 328.237 23.018 C 318.491 21.901, 315.570 21.907, 305.609 23.062 M 12 78.509 L 12 133.182 40.750 132.795 C 67.291 132.437, 69.961 132.239, 75.500 130.216 C 82.575 127.632, 88.319 122.117, 89.912 116.377 C 91.315 111.327, 91.297 94.611, 89.885 89.523 C 87.869 82.262, 79.299 76.026, 71.309 76.006 C 66.788 75.994, 68.325 74.333, 73.928 73.176 C 80.335 71.852, 85.210 68.992, 88.408 64.679 C 90.100 62.397, 90.566 60.077, 90.843 52.533 C 91.398 37.433, 87.295 31.223, 73.781 26.713 C 68.151 24.834, 64.623 24.577, 39.750 24.226 L 12 23.835 12 78.509 M 189.750 24.556 C 189.338 24.984, 189 49.558, 189 79.167 L 189 133 206 133 L 223 133 223 107.500 C 223 93.475, 223.338 82.003, 223.750 82.006 C 226.203 82.024, 231.988 84.280, 233.142 85.669 C 234.146 86.878, 234.630 92.548, 235 107.450 C 235.423 124.495, 235.773 128.012, 237.273 130.298 L 239.046 133 256.023 133 C 265.360 133, 273 132.832, 273 132.627 C 273 132.422, 272.016 130.060, 270.813 127.377 C 268.886 123.078, 268.576 120.308, 268.196 104 C 267.885 90.631, 267.369 84.725, 266.334 82.706 C 264.465 79.057, 259.682 76.218, 254.033 75.404 C 248.123 74.553, 245.340 73.072, 249.571 73.030 C 254.159 72.985, 263.152 68.022, 265.749 64.102 C 267.692 61.169, 268 59.389, 268 51.087 C 268 39.507, 266.517 35.987, 259.676 31.333 C 251.961 26.083, 243.962 24.802, 215.500 24.257 C 201.750 23.994, 190.162 24.129, 189.750 24.556 M 136 40 C 134.073 41.927, 134 43.333, 134 78.500 C 134 113.667, 134.073 115.073, 136 117 C 138.654 119.654, 142.500 119.552, 144.443 116.777 C 145.782 114.866, 146 109.514, 146 78.500 C 146 47.486, 145.782 42.134, 144.443 40.223 C 142.500 37.448, 138.654 37.346, 136 40 M 46 54.500 L 46 69 49.929 69 C 56.331 69, 57 67.593, 57 54.129 C 57 46.340, 56.597 41.997, 55.800 41.200 C 55.140 40.540, 52.665 40, 50.300 40 L 46 40 46 54.500 M 223 55.130 L 223 70.260 227.587 69.743 C 230.110 69.459, 232.697 68.703, 233.337 68.063 C 234.092 67.308, 234.500 62.681, 234.500 54.869 C 234.500 41.210, 233.874 40, 226.809 40 L 223 40 223 55.130 M 46 100 L 46 117 50.300 117 C 52.665 117, 55.140 116.460, 55.800 115.800 C 57.475 114.125, 57.475 85.875, 55.800 84.200 C 55.140 83.540, 52.665 83, 50.300 83 L 46 83 46 100" stroke="none" fill="#e4063e" fill-rule="evenodd"/></svg>